# xmcd
# 
# Track frame offsets:
#     150
#     16776
#     32812
#     61638
# 
# Disc length: 1200
# 
# Revision: 0
# Processed by: cddbd v1.5.2PL0 Copyright (c) Steve Scherf et al.
# Submitted via: fre:ac v1.0.17
# 
DISCID=2204ae04
DTITLE=Starsailor - Silence Is Easy
DYEAR=2003
DGENRE=
TTITLE0=Silence Is Easy
TTITLE1=Could You Be Mine?
TTITLE2=She Understands
TTITLE3=Data track
EXTD=
EXTT0=
EXTT1=
EXTT2=
EXTT3=
PLAYORDER=
